STARTFONT 2.1
FONT -Monotype-Book Antiqua-Regular-R-Normal--25-180-100-100-P-119-iso8859-9
SIZE 18 100 100
FONTBOUNDINGBOX 29 31 -3 -7

STARTPROPERTIES 24
FOUNDRY "Monotype"
FAMILY_NAME "Book Antiqua"
WEIGHT_NAME "Regular"
SLANT "R"
SETWIDTH_NAME "Normal"
ADD_STYLE_NAME ""
PIXEL_SIZE 25
POINT_SIZE 180
RESOLUTION_X 100
RESOLUTION_Y 100
SPACING "P"
AVERAGE_WIDTH 119
CHARSET_REGISTRY "iso8859"
CHARSET_ENCODING "9"
FACE_NAME "Book Antiqua ISO Latin5"
_DEC_DEVICE_FONTNAMES "PS=bookantiqua-lat5"
COPYRIGHT "Copyright (c) 1993 Monotype Typography Ltd."
CAP_HEIGHT 21
X_HEIGHT 14
WEIGHT 10
QUAD_WIDTH 15
DEFAULT_CHAR 160
FONT_DESCENT 7
FONT_ASCENT 24
ENDPROPERTIES

CHARS 191

STARTCHAR space
ENCODING 32
SWIDTH 250 0
DWIDTH 6 0
BBX 0 0 0 0
BITMAP
ENDCHAR

STARTCHAR exclam
ENCODING 33
SWIDTH 278 0
DWIDTH 7 0
BBX 3 18 2 0
BITMAP
20
E0
E0
E0
E0
E0
40
40
40
40
40
40
40
00
00
E0
E0
60
ENDCHAR

STARTCHAR quotedbl
ENCODING 34
SWIDTH 371 0
DWIDTH 9 0
BBX 6 8 2 10
BITMAP
44
CC
CC
CC
CC
CC
44
44
ENDCHAR

STARTCHAR numbersign
ENCODING 35
SWIDTH 606 0
DWIDTH 15 0
BBX 13 18 1 0
BITMAP
0C30
0C20
0C20
0860
0860
FFF8
FFF8
1840
1840
10C0
FFF8
FFF8
30C0
30C0
3080
3080
2180
2180
ENDCHAR

STARTCHAR dollar
ENCODING 36
SWIDTH 500 0
DWIDTH 13 0
BBX 11 21 1 -2
BITMAP
0400
0400
1F80
64C0
4440
C440
C400
C400
E400
7F00
3FC0
05E0
0460
0460
8460
8460
84C0
E580
3F00
0400
0400
ENDCHAR

STARTCHAR percent
ENCODING 37
SWIDTH 840 0
DWIDTH 21 0
BBX 16 19 3 -1
BITMAP
3808
4410
C610
C620
C620
C640
4440
3880
0180
0100
033C
0262
04C3
04C3
08C3
08C3
1066
103C
2000
ENDCHAR

STARTCHAR ampersand
ENCODING 38
SWIDTH 778 0
DWIDTH 19 0
BBX 18 18 1 0
BITMAP
038000
0CC000
18C000
18C000
188000
190000
1E0000
0C3F80
3E3F80
670C00
470C00
C38C00
C1C800
C0F800
E07000
703C40
78DF80
3F0700
ENDCHAR

STARTCHAR quoteright
ENCODING 39
SWIDTH 278 0
DWIDTH 7 0
BBX 5 6 0 12
BITMAP
38
38
30
20
60
C0
ENDCHAR

STARTCHAR parenleft
ENCODING 40
SWIDTH 333 0
DWIDTH 8 0
BBX 6 25 2 -7
BITMAP
04
08
18
30
20
60
60
40
C0
C0
C0
C0
C0
C0
C0
C0
E0
60
60
60
30
10
18
0C
04
ENDCHAR

STARTCHAR parenright
ENCODING 41
SWIDTH 333 0
DWIDTH 8 0
BBX 6 25 0 -7
BITMAP
80
40
20
30
10
18
18
0C
0C
0C
0C
0C
0C
0C
0C
0C
0C
18
18
18
30
20
60
C0
80
ENDCHAR

STARTCHAR asterisk
ENCODING 42
SWIDTH 389 0
DWIDTH 10 0
BBX 8 8 1 9
BITMAP
18
18
D3
F7
18
2C
E6
44
ENDCHAR

STARTCHAR plus
ENCODING 43
SWIDTH 606 0
DWIDTH 15 0
BBX 12 12 2 3
BITMAP
0600
0600
0600
0600
0600
FFF0
FFF0
0600
0600
0600
0600
0600
ENDCHAR

STARTCHAR comma
ENCODING 44
SWIDTH 250 0
DWIDTH 6 0
BBX 5 7 0 -4
BITMAP
38
38
30
20
60
40
80
ENDCHAR

STARTCHAR minus
ENCODING 45
SWIDTH 606 0
DWIDTH 15 0
BBX 13 2 1 8
BITMAP
FFF8
FFF8
ENDCHAR

STARTCHAR period
ENCODING 46
SWIDTH 250 0
DWIDTH 6 0
BBX 3 3 2 0
BITMAP
E0
E0
60
ENDCHAR

STARTCHAR slash
ENCODING 47
SWIDTH 606 0
DWIDTH 15 0
BBX 12 23 1 -5
BITMAP
0070
0060
0040
00C0
00C0
0180
0180
0100
0300
0200
0600
0600
0C00
0C00
0800
1800
1800
3000
3000
2000
6000
4000
C000
ENDCHAR

STARTCHAR zero
ENCODING 48
SWIDTH 500 0
DWIDTH 13 0
BBX 11 18 1 0
BITMAP
1F00
3180
60C0
60E0
C060
C060
C060
C060
C060
C060
C060
C060
C060
C040
60C0
60C0
3180
1E00
ENDCHAR

STARTCHAR one
ENCODING 49
SWIDTH 500 0
DWIDTH 13 0
BBX 10 18 0 0
BITMAP
0200
0E00
7A00
C600
0600
0600
0600
0600
0600
0600
0600
0600
0600
0600
0600
0600
0600
3FC0
ENDCHAR

STARTCHAR two
ENCODING 50
SWIDTH 500 0
DWIDTH 13 0
BBX 11 18 1 0
BITMAP
3F00
7F80
43C0
C1C0
80C0
00C0
00C0
00C0
0180
0100
0200
0600
0C00
1800
3000
6000
FFE0
FFE0
ENDCHAR

STARTCHAR three
ENCODING 51
SWIDTH 500 0
DWIDTH 13 0
BBX 11 18 0 0
BITMAP
1F00
3F80
61C0
40C0
40C0
00C0
0080
0100
1FC0
08E0
00E0
0060
0060
8060
8040
40C0
6100
7E00
ENDCHAR

STARTCHAR four
ENCODING 52
SWIDTH 500 0
DWIDTH 13 0
BBX 12 18 0 0
BITMAP
0080
0180
0380
0680
0580
0980
0980
1180
2180
2180
4180
FFF0
FFF0
0180
0180
0180
0180
0FF0
ENDCHAR

STARTCHAR five
ENCODING 53
SWIDTH 500 0
DWIDTH 13 0
BBX 11 18 0 0
BITMAP
7FC0
3FC0
2000
2000
2000
2000
0F00
3FC0
61C0
00E0
0060
0060
0060
0060
80C0
C080
6300
7E00
ENDCHAR

STARTCHAR six
ENCODING 54
SWIDTH 500 0
DWIDTH 13 0
BBX 11 18 1 0
BITMAP
00C0
0300
0C00
1800
3000
6000
6000
EF80
D1C0
E0E0
C060
C060
C060
C060
6040
60C0
3180
1E00
ENDCHAR

STARTCHAR seven
ENCODING 55
SWIDTH 500 0
DWIDTH 13 0
BBX 11 18 1 0
BITMAP
FFE0
FFE0
8040
8040
8080
0080
0100
0300
0200
0600
0400
0C00
0800
1800
3000
3000
7000
6000
ENDCHAR

STARTCHAR eight
ENCODING 56
SWIDTH 500 0
DWIDTH 13 0
BBX 11 18 1 0
BITMAP
0F00
3180
20C0
60C0
60C0
6080
7980
3E00
0F00
33C0
61C0
40E0
C060
C060
C060
4040
6180
1E00
ENDCHAR

STARTCHAR nine
ENCODING 57
SWIDTH 500 0
DWIDTH 13 0
BBX 11 18 1 0
BITMAP
1F00
3180
60C0
C0E0
C060
C060
C060
C060
E0E0
7160
3EE0
00C0
00C0
0180
0300
0600
1C00
6000
ENDCHAR

STARTCHAR colon
ENCODING 58
SWIDTH 250 0
DWIDTH 6 0
BBX 3 12 2 0
BITMAP
E0
E0
60
00
00
00
00
00
00
E0
E0
60
ENDCHAR

STARTCHAR semicolon
ENCODING 59
SWIDTH 250 0
DWIDTH 6 0
BBX 5 15 0 -3
BITMAP
38
38
18
00
00
00
00
00
08
38
30
30
60
40
C0
ENDCHAR

STARTCHAR less
ENCODING 60
SWIDTH 606 0
DWIDTH 15 0
BBX 13 13 1 2
BITMAP
0008
0078
01E0
0780
1E00
7800
E000
7800
1F00
03C0
00F0
0038
0008
ENDCHAR

STARTCHAR equal
ENCODING 61
SWIDTH 606 0
DWIDTH 15 0
BBX 13 6 1 6
BITMAP
FFF8
FFF8
0000
0000
FFF8
FFF8
ENDCHAR

STARTCHAR greater
ENCODING 62
SWIDTH 606 0
DWIDTH 15 0
BBX 13 13 1 2
BITMAP
8000
F000
3C00
0F00
03C0
00F8
0038
00F0
03C0
1F00
7800
E000
8000
ENDCHAR

STARTCHAR question
ENCODING 63
SWIDTH 444 0
DWIDTH 11 0
BBX 9 18 1 0
BITMAP
3E00
7F00
4380
8180
0180
0180
0300
0700
0600
0800
1800
1000
1800
0000
0000
1800
1C00
0800
ENDCHAR

STARTCHAR at
ENCODING 64
SWIDTH 747 0
DWIDTH 19 0
BBX 19 20 0 -2
BITMAP
01F800
060600
080100
100080
200040
406C40
419C40
C30840
821840
861840
841840
8C3080
8C7100
8CB220
471C40
400040
200080
180300
060C00
01F000
ENDCHAR

STARTCHAR A
ENCODING 65
SWIDTH 778 0
DWIDTH 19 0
BBX 18 18 1 0
BITMAP
008000
00C000
00C000
01E000
016000
027000
027000
063000
043800
0C1800
081C00
0FFC00
180E00
100E00
300600
200300
600700
F81FC0
ENDCHAR

STARTCHAR B
ENCODING 66
SWIDTH 611 0
DWIDTH 15 0
BBX 13 18 1 0
BITMAP
FFC0
30F0
3070
3030
3030
3030
3060
30C0
3FC0
3070
3038
3038
3038
3038
3030
3070
30E0
7F80
ENDCHAR

STARTCHAR C
ENCODING 67
SWIDTH 709 0
DWIDTH 18 0
BBX 17 18 1 0
BITMAP
01FC00
0E0700
180100
300100
700100
600000
600000
E00000
E00000
E00000
E00000
600000
700000
700000
380000
1C0080
0F8300
03FC00
ENDCHAR

STARTCHAR D
ENCODING 68
SWIDTH 774 0
DWIDTH 19 0
BBX 18 18 1 0
BITMAP
FFF800
301E00
300700
300380
300380
3001C0
3001C0
3001C0
3001C0
3001C0
3001C0
300180
300180
300300
300700
300E00
303800
7FE000
ENDCHAR

STARTCHAR E
ENCODING 69
SWIDTH 611 0
DWIDTH 15 0
BBX 14 18 0 0
BITMAP
FFFC
381C
1808
1808
1800
1800
1810
1810
1810
1FF0
1810
1810
1800
1800
1804
1804
1804
7FFC
ENDCHAR

STARTCHAR F
ENCODING 70
SWIDTH 556 0
DWIDTH 14 0
BBX 14 18 0 0
BITMAP
FFFC
1818
1808
1808
1800
1800
1810
1810
1FF0
1810
1810
1810
1800
1800
1800
1800
1C00
FF00
ENDCHAR

STARTCHAR G
ENCODING 71
SWIDTH 763 0
DWIDTH 19 0
BBX 18 18 0 0
BITMAP
03FE00
0E0380
180080
300080
700080
600000
600000
E00000
E00000
E00000
E00000
600FC0
700180
700180
380180
1C0180
0F0780
03FC00
ENDCHAR

STARTCHAR H
ENCODING 72
SWIDTH 832 0
DWIDTH 21 0
BBX 20 18 0 0
BITMAP
FE07F0
180180
180180
180180
180180
180180
180180
180180
1FFF80
180180
180180
180180
180180
180180
180180
180180
180180
FE07F0
ENDCHAR

STARTCHAR I
ENCODING 73
SWIDTH 337 0
DWIDTH 8 0
BBX 7 18 1 0
BITMAP
FE
30
30
30
30
30
30
30
30
30
30
30
30
30
30
30
30
FE
ENDCHAR

STARTCHAR J
ENCODING 74
SWIDTH 333 0
DWIDTH 8 0
BBX 8 22 0 -4
BITMAP
FF
18
18
18
18
18
18
18
18
18
18
18
18
18
18
18
18
18
10
30
E0
C0
ENDCHAR

STARTCHAR K
ENCODING 75
SWIDTH 726 0
DWIDTH 18 0
BBX 17 18 1 0
BITMAP
FE0F00
301C00
303000
306000
30C000
308000
310000
320000
3E0000
370000
338000
31C000
30E000
307000
303800
301C00
300E00
FE0780
ENDCHAR

STARTCHAR L
ENCODING 76
SWIDTH 611 0
DWIDTH 15 0
BBX 15 18 0 0
BITMAP
FF00
1800
1800
1800
1800
1800
1800
1800
1800
1800
1800
1800
1800
1802
1804
1804
180C
3FFC
ENDCHAR

STARTCHAR M
ENCODING 77
SWIDTH 946 0
DWIDTH 24 0
BBX 23 18 1 0
BITMAP
F0003E
380070
380070
2C00B0
2C00B0
2E01B0
260130
270330
230230
238630
218430
21CC30
20C830
20F830
207030
207030
202030
FC20FE
ENDCHAR

STARTCHAR N
ENCODING 78
SWIDTH 831 0
DWIDTH 21 0
BBX 19 18 1 0
BITMAP
F007E0
380080
3C0080
2E0080
2E0080
270080
238080
21C080
20E080
20E080
207080
203880
201C80
200E80
200F80
200780
200380
F80180
ENDCHAR

STARTCHAR O
ENCODING 79
SWIDTH 786 0
DWIDTH 20 0
BBX 18 18 1 0
BITMAP
03F800
1C1E00
300700
600380
600380
E00180
C001C0
C001C0
C001C0
C001C0
C001C0
E00180
E00180
700300
700300
380600
1E1C00
07E000
ENDCHAR

STARTCHAR P
ENCODING 80
SWIDTH 604 0
DWIDTH 15 0
BBX 15 18 0 0
BITMAP
FFF0
183C
180E
180E
180E
180E
180C
181C
1838
19E0
1800
1800
1800
1800
1800
1800
1800
FF00
ENDCHAR

STARTCHAR Q
ENCODING 81
SWIDTH 786 0
DWIDTH 20 0
BBX 19 22 0 -4
BITMAP
03F800
0E0E00
180380
300180
7001C0
6000C0
E000E0
E000E0
E000E0
E000E0
E000E0
6000C0
7000C0
700180
380180
1C0300
0F0C00
03F000
00E000
01FC00
021FE0
000380
ENDCHAR

STARTCHAR R
ENCODING 82
SWIDTH 668 0
DWIDTH 17 0
BBX 15 18 1 0
BITMAP
FFE0
3070
3038
3038
3038
3038
3030
3060
3780
3380
3380
31C0
30E0
3060
3070
3038
301C
FC1E
ENDCHAR

STARTCHAR S
ENCODING 83
SWIDTH 525 0
DWIDTH 13 0
BBX 12 18 1 0
BITMAP
1FC0
3060
6020
C020
C000
C000
E000
F000
7FC0
1FE0
0070
0030
0030
8030
8020
8060
E0C0
7F00
ENDCHAR

STARTCHAR T
ENCODING 84
SWIDTH 613 0
DWIDTH 15 0
BBX 14 18 1 0
BITMAP
FFFC
8304
8304
8304
0300
0300
0300
0300
0300
0300
0300
0300
0300
0300
0300
0300
0300
1FE0
ENDCHAR

STARTCHAR U
ENCODING 85
SWIDTH 778 0
DWIDTH 19 0
BBX 18 18 1 0
BITMAP
FE0FC0
300100
300100
300100
300100
300100
300100
300100
300100
300100
300100
300100
300100
300100
380300
1C0600
0FFC00
03E000
ENDCHAR

STARTCHAR V
ENCODING 86
SWIDTH 722 0
DWIDTH 18 0
BBX 18 18 0 0
BITMAP
FE0FC0
380300
180300
1C0200
1C0200
0C0400
0E0400
0E0C00
060800
070800
031000
039000
03B000
01A000
01E000
00C000
00C000
00C000
ENDCHAR

STARTCHAR W
ENCODING 87
SWIDTH 1000 0
DWIDTH 25 0
BBX 25 18 0 0
BITMAP
FE0C1F80
380C0200
380C0600
381E0400
18160400
18160400
1C270C00
1C230800
0C430800
0C438800
0CC19000
0E819000
0681D000
0700F000
0700E000
0700E000
06006000
02004000
ENDCHAR

STARTCHAR X
ENCODING 88
SWIDTH 667 0
DWIDTH 17 0
BBX 16 18 0 0
BITMAP
7807
3C0C
1C08
0E18
0610
0720
03E0
01C0
01C0
01C0
0360
0270
0470
0C38
1818
101C
300E
E00F
ENDCHAR

STARTCHAR Y
ENCODING 89
SWIDTH 667 0
DWIDTH 17 0
BBX 16 18 1 0
BITMAP
2003
F006
380C
1808
1C18
0C10
0620
0720
0340
03C0
0180
0180
0180
0180
0180
0180
0180
0FF0
ENDCHAR

STARTCHAR Z
ENCODING 90
SWIDTH 667 0
DWIDTH 17 0
BBX 15 18 1 0
BITMAP
7FFE
401C
4038
4038
0070
00E0
00C0
01C0
0380
0700
0700
0E00
1C00
1800
3802
7002
E006
FFFE
ENDCHAR

STARTCHAR bracketleft
ENCODING 91
SWIDTH 333 0
DWIDTH 8 0
BBX 5 23 2 -5
BITMAP
F8
C0
C0
C0
C0
C0
C0
C0
C0
C0
C0
C0
C0
C0
C0
C0
C0
C0
C0
C0
C0
C0
F8
ENDCHAR

STARTCHAR backslash
ENCODING 92
SWIDTH 606 0
DWIDTH 15 0
BBX 12 23 1 -5
BITMAP
C000
4000
6000
2000
3000
3000
1800
1800
0800
0C00
0C00
0600
0600
0200
0300
0100
0180
0180
00C0
00C0
0040
0060
0070
ENDCHAR

STARTCHAR bracketright
ENCODING 93
SWIDTH 333 0
DWIDTH 8 0
BBX 5 23 1 -5
BITMAP
F8
18
18
18
18
18
18
18
18
18
18
18
18
18
18
18
18
18
18
18
18
18
F8
ENDCHAR

STARTCHAR asciicircum
ENCODING 94
SWIDTH 606 0
DWIDTH 15 0
BBX 13 10 1 8
BITMAP
0700
0700
0D80
0880
18C0
1040
3060
2030
6010
C018
ENDCHAR

STARTCHAR underscore
ENCODING 95
SWIDTH 500 0
DWIDTH 13 0
BBX 13 1 0 -3
BITMAP
FFF8
ENDCHAR

STARTCHAR quoteleft
ENCODING 96
SWIDTH 278 0
DWIDTH 7 0
BBX 5 6 0 12
BITMAP
08
10
30
30
60
E0
ENDCHAR

STARTCHAR a
ENCODING 97
SWIDTH 500 0
DWIDTH 13 0
BBX 11 12 1 0
BITMAP
1F00
6300
4180
0180
0780
3980
6180
C180
C180
C280
7DE0
3000
ENDCHAR

STARTCHAR b
ENCODING 98
SWIDTH 553 0
DWIDTH 14 0
BBX 13 19 0 0
BITMAP
1000
F000
3000
3000
3000
3000
3000
31C0
37F0
3838
3038
3018
3018
3018
3018
3030
3020
3C40
2F80
ENDCHAR

STARTCHAR c
ENCODING 99
SWIDTH 444 0
DWIDTH 11 0
BBX 10 12 1 0
BITMAP
0FC0
31C0
6080
C080
C000
C000
C000
C000
E000
7000
78C0
1F80
ENDCHAR

STARTCHAR d
ENCODING 100
SWIDTH 611 0
DWIDTH 15 0
BBX 13 19 1 0
BITMAP
0020
01E0
0060
0060
0060
0060
0060
0F60
31E0
6060
C060
C060
C060
C060
C060
E0E0
70E0
3F60
1C78
ENDCHAR

STARTCHAR e
ENCODING 101
SWIDTH 479 0
DWIDTH 12 0
BBX 10 12 1 0
BITMAP
1F00
6180
40C0
C0C0
C0C0
FFC0
C000
C000
E000
E000
70C0
3F00
ENDCHAR

STARTCHAR f
ENCODING 102
SWIDTH 333 0
DWIDTH 8 0
BBX 8 19 0 0
BITMAP
07
0F
18
10
30
30
30
30
FE
30
30
30
30
30
30
30
30
30
FE
ENDCHAR

STARTCHAR g
ENCODING 103
SWIDTH 556 0
DWIDTH 14 0
BBX 13 19 1 -7
BITMAP
0F00
31F8
60C0
60C0
60C0
6080
7180
1E00
2000
6000
7FE0
1FF0
6030
C030
C030
C020
C060
60C0
1F00
ENDCHAR

STARTCHAR h
ENCODING 104
SWIDTH 582 0
DWIDTH 15 0
BBX 14 19 0 0
BITMAP
1000
F000
3000
3000
3000
3000
3000
31C0
37E0
3870
3030
3030
3030
3030
3030
3030
3030
3030
FC3C
ENDCHAR

STARTCHAR i
ENCODING 105
SWIDTH 291 0
DWIDTH 7 0
BBX 6 18 1 0
BITMAP
30
70
30
00
00
00
10
F0
30
30
30
30
30
30
30
30
30
FC
ENDCHAR

STARTCHAR j
ENCODING 106
SWIDTH 234 0
DWIDTH 6 0
BBX 5 25 -1 -7
BITMAP
18
38
18
00
00
00
08
78
18
18
18
18
18
18
18
18
18
18
18
18
18
18
10
20
C0
ENDCHAR

STARTCHAR k
ENCODING 107
SWIDTH 556 0
DWIDTH 14 0
BBX 13 19 1 0
BITMAP
1000
F000
3000
3000
3000
3000
3000
3070
30C0
3180
3300
3400
3E00
3700
3380
31C0
30E0
3078
FC30
ENDCHAR

STARTCHAR l
ENCODING 108
SWIDTH 291 0
DWIDTH 7 0
BBX 6 19 1 0
BITMAP
10
F0
30
30
30
30
30
30
30
30
30
30
30
30
30
30
30
30
FC
ENDCHAR

STARTCHAR m
ENCODING 109
SWIDTH 883 0
DWIDTH 22 0
BBX 21 12 1 0
BITMAP
73E780
F4F7C0
3838E0
303060
303060
303060
303060
303060
303060
303060
303060
FCFC78
ENDCHAR

STARTCHAR n
ENCODING 110
SWIDTH 582 0
DWIDTH 15 0
BBX 14 12 0 0
BITMAP
13C0
F7E0
3870
3030
3030
3030
3030
3030
3030
3030
3030
FC3C
ENDCHAR

STARTCHAR o
ENCODING 111
SWIDTH 546 0
DWIDTH 14 0
BBX 12 12 1 0
BITMAP
0F80
30E0
6060
C070
C030
C030
C030
E030
E030
7060
38C0
1F00
ENDCHAR

STARTCHAR p
ENCODING 112
SWIDTH 601 0
DWIDTH 15 0
BBX 13 19 1 -7
BITMAP
11C0
F7F0
3838
3038
3018
3018
3018
3018
3010
3020
3C40
3F80
3000
3000
3000
3000
3000
3000
FC00
ENDCHAR

STARTCHAR q
ENCODING 113
SWIDTH 560 0
DWIDTH 14 0
BBX 13 19 1 -7
BITMAP
0FB0
30E0
6060
4060
C060
C060
C060
C060
E060
60E0
79A0
3E60
0060
0060
0060
0060
0060
0060
01F8
ENDCHAR

STARTCHAR r
ENCODING 114
SWIDTH 395 0
DWIDTH 10 0
BBX 9 12 1 0
BITMAP
3380
F780
3980
3000
3000
3000
3000
3000
3000
3000
3000
FE00
ENDCHAR

STARTCHAR s
ENCODING 115
SWIDTH 424 0
DWIDTH 11 0
BBX 9 12 1 0
BITMAP
3E00
6300
C100
C000
E000
7E00
1F80
0380
8180
8100
C300
7C00
ENDCHAR

STARTCHAR t
ENCODING 116
SWIDTH 326 0
DWIDTH 8 0
BBX 8 16 1 0
BITMAP
10
30
30
30
30
FF
30
30
30
30
30
30
30
30
3E
1C
ENDCHAR

STARTCHAR u
ENCODING 117
SWIDTH 603 0
DWIDTH 15 0
BBX 14 12 0 0
BITMAP
1010
F0F0
3030
3030
3030
3030
3030
3030
3030
3070
38B0
1F3C
ENDCHAR

STARTCHAR v
ENCODING 118
SWIDTH 565 0
DWIDTH 14 0
BBX 13 12 1 0
BITMAP
F8F8
7020
3020
3040
3840
1880
1C80
0C80
0D00
0600
0600
0600
ENDCHAR

STARTCHAR w
ENCODING 119
SWIDTH 834 0
DWIDTH 21 0
BBX 20 12 0 0
BITMAP
FC21F0
306060
307040
305080
18B080
189880
191900
0D1D00
0E0E00
0E0E00
060600
040400
ENDCHAR

STARTCHAR x
ENCODING 120
SWIDTH 516 0
DWIDTH 13 0
BBX 11 12 1 0
BITMAP
6060
F0C0
3180
1900
1E00
0C00
0E00
0B00
1380
2180
E1E0
0040
ENDCHAR

STARTCHAR y
ENCODING 121
SWIDTH 556 0
DWIDTH 14 0
BBX 13 19 1 -7
BITMAP
F8F8
7020
3020
3040
3840
1880
1C80
0C80
0D00
0E00
0600
0600
0200
0400
0400
0800
4800
F000
E000
ENDCHAR

STARTCHAR z
ENCODING 122
SWIDTH 500 0
DWIDTH 13 0
BBX 11 12 1 0
BITMAP
7FE0
41C0
4380
0300
0600
0E00
1C00
1800
3020
7020
E060
FFE0
ENDCHAR

STARTCHAR braceleft
ENCODING 123
SWIDTH 333 0
DWIDTH 8 0
BBX 7 25 1 -7
BITMAP
06
08
18
10
38
38
18
18
18
18
10
20
C0
20
10
18
38
38
38
38
30
30
10
0C
02
ENDCHAR

STARTCHAR bar
ENCODING 124
SWIDTH 606 0
DWIDTH 15 0
BBX 2 22 7 -4
BITMAP
C0
C0
C0
C0
C0
C0
C0
C0
C0
C0
C0
C0
C0
C0
C0
C0
C0
C0
C0
C0
C0
C0
ENDCHAR

STARTCHAR braceright
ENCODING 125
SWIDTH 333 0
DWIDTH 8 0
BBX 7 25 1 -7
BITMAP
C0
20
10
18
38
38
38
38
30
10
08
04
02
08
10
10
38
38
18
18
18
18
10
60
80
ENDCHAR

STARTCHAR asciitilde
ENCODING 126
SWIDTH 606 0
DWIDTH 15 0
BBX 13 4 1 7
BITMAP
7808
FF08
83F8
80F0
ENDCHAR

STARTCHAR space
ENCODING 160
SWIDTH 250 0
DWIDTH 8 0
BBX 0 0 0 0
BITMAP
ENDCHAR

STARTCHAR exclamdown
ENCODING 161
SWIDTH 278 0
DWIDTH 7 0
BBX 3 18 2 -6
BITMAP
E0
E0
60
00
00
40
40
40
40
40
40
40
E0
E0
E0
E0
E0
80
ENDCHAR

STARTCHAR cent
ENCODING 162
SWIDTH 500 0
DWIDTH 13 0
BBX 9 16 2 0
BITMAP
0400
0600
1F80
6480
4480
C400
C400
C400
C400
E400
7400
7C80
1F00
0400
0400
0400
ENDCHAR

STARTCHAR sterling
ENCODING 163
SWIDTH 500 0
DWIDTH 13 0
BBX 12 18 0 0
BITMAP
01F0
0630
0C10
1C10
1800
1800
1800
1800
1800
FFC0
1800
1800
1000
1000
3010
2010
7FF0
C3F0
ENDCHAR

STARTCHAR currency
ENCODING 164
SWIDTH 606 0
DWIDTH 15 0
BBX 13 13 1 2
BITMAP
4F90
EFF8
3070
6030
C018
C018
C018
C018
C018
6030
7070
EFD8
4F88
ENDCHAR

STARTCHAR yen
ENCODING 165
SWIDTH 500 0
DWIDTH 13 0
BBX 13 18 -1 0
BITMAP
E018
7030
3830
1820
1C60
0C40
0EC0
0680
0600
7FF8
0300
0300
0300
7FF8
0300
0300
0300
0FE0
ENDCHAR

STARTCHAR brokenbar
ENCODING 166
SWIDTH 606 0
DWIDTH 15 0
BBX 2 22 7 -4
BITMAP
C0
C0
C0
C0
C0
C0
C0
C0
00
00
00
00
00
00
00
C0
C0
C0
C0
C0
C0
C0
ENDCHAR

STARTCHAR section
ENCODING 167
SWIDTH 500 0
DWIDTH 13 0
BBX 10 21 1 -3
BITMAP
1F80
3180
6080
4080
4000
6000
7C00
3F00
4780
C1C0
C0C0
F0C0
7C80
1F00
0380
00C0
00C0
4080
4080
6300
7E00
ENDCHAR

STARTCHAR dieresis
ENCODING 168
SWIDTH 333 0
DWIDTH 8 0
BBX 8 3 0 13
BITMAP
42
E7
42
ENDCHAR

STARTCHAR copyright
ENCODING 169
SWIDTH 747 0
DWIDTH 19 0
BBX 18 18 0 0
BITMAP
03F000
0C0C00
100200
21F900
460880
4C0C80
480440
980040
980040
980040
980040
8C0040
4C0480
461880
21E100
100200
0C1C00
03E000
ENDCHAR

STARTCHAR ordfeminine
ENCODING 170
SWIDTH 333 0
DWIDTH 8 0
BBX 8 7 0 11
BITMAP
3C
46
0E
76
C6
CE
77
ENDCHAR

STARTCHAR guillemotleft
ENCODING 171
SWIDTH 500 0
DWIDTH 13 0
BBX 10 9 1 1
BITMAP
0840
1080
2180
4200
E700
2100
1080
0840
0840
ENDCHAR

STARTCHAR logicalnot
ENCODING 172
SWIDTH 606 0
DWIDTH 15 0
BBX 12 6 2 6
BITMAP
FFF0
FFF0
0030
0030
0030
0030
ENDCHAR

STARTCHAR hyphen
ENCODING 173
SWIDTH 333 0
DWIDTH 8 0
BBX 7 2 1 5
BITMAP
FE
FC
ENDCHAR

STARTCHAR registered
ENCODING 174
SWIDTH 747 0
DWIDTH 19 0
BBX 18 18 0 0
BITMAP
03F000
0C0C00
100200
2FE100
463880
461840
861840
863040
87E040
866040
866040
463040
461880
2F8C80
200100
100200
0E0C00
01F000
ENDCHAR

STARTCHAR macron
ENCODING 175
SWIDTH 333 0
DWIDTH 8 0
BBX 6 1 1 14
BITMAP
FC
ENDCHAR

STARTCHAR degree
ENCODING 176
SWIDTH 401 0
DWIDTH 10 0
BBX 7 7 2 11
BITMAP
7C
C6
82
82
C2
C6
7C
ENDCHAR

STARTCHAR plusminus
ENCODING 177
SWIDTH 606 0
DWIDTH 15 0
BBX 12 15 2 0
BITMAP
0600
0600
0600
0600
0600
FFF0
FFF0
0600
0600
0600
0600
0600
0000
FFF0
FFF0
ENDCHAR

STARTCHAR twosuperior
ENCODING 178
SWIDTH 310 0
DWIDTH 8 0
BBX 7 10 0 8
BITMAP
7C
4E
86
06
04
0C
10
20
40
FE
ENDCHAR

STARTCHAR threesuperior
ENCODING 179
SWIDTH 310 0
DWIDTH 8 0
BBX 7 11 0 7
BITMAP
78
4C
84
04
08
3C
06
06
86
8C
F0
ENDCHAR

STARTCHAR acute
ENCODING 180
SWIDTH 333 0
DWIDTH 8 0
BBX 5 4 2 13
BITMAP
08
18
30
C0
ENDCHAR

STARTCHAR mu
ENCODING 181
SWIDTH 561 0
DWIDTH 14 0
BBX 11 16 1 -4
BITMAP
6180
6180
6180
6180
6180
6180
6180
6180
6180
63A0
7DE0
58E0
C000
C000
C000
C000
ENDCHAR

STARTCHAR paragraph
ENCODING 182
SWIDTH 628 0
DWIDTH 16 0
BBX 13 24 2 -6
BITMAP
1FF8
7E20
FE20
FE20
FE20
FE20
FE20
7E20
7E20
0E20
0220
0220
0220
0220
0220
0220
0220
0220
0220
0220
0220
0220
0220
0220
ENDCHAR

STARTCHAR periodcentered
ENCODING 183
SWIDTH 250 0
DWIDTH 6 0
BBX 3 3 2 7
BITMAP
E0
E0
60
ENDCHAR

STARTCHAR cedilla
ENCODING 184
SWIDTH 333 0
DWIDTH 8 0
BBX 5 5 3 -5
BITMAP
20
70
18
18
F0
ENDCHAR

STARTCHAR onesuperior
ENCODING 185
SWIDTH 310 0
DWIDTH 8 0
BBX 6 11 0 7
BITMAP
10
70
90
10
10
10
10
10
10
10
7C
ENDCHAR

STARTCHAR ordmasculine
ENCODING 186
SWIDTH 333 0
DWIDTH 8 0
BBX 8 8 0 10
BITMAP
3C
46
C3
C3
C3
C3
66
38
ENDCHAR

STARTCHAR guillemotright
ENCODING 187
SWIDTH 500 0
DWIDTH 13 0
BBX 10 9 1 1
BITMAP
C600
6300
3180
18C0
18C0
3180
6300
C600
4200
ENDCHAR

STARTCHAR onequarter
ENCODING 188
SWIDTH 788 0
DWIDTH 20 0
BBX 18 19 1 0
BITMAP
000400
100400
700800
900800
101000
101000
102000
102000
104100
104300
108300
7C8500
010900
010900
021100
021FC0
040100
040100
0807C0
ENDCHAR

STARTCHAR onehalf
ENCODING 189
SWIDTH 788 0
DWIDTH 20 0
BBX 18 19 1 -1
BITMAP
000600
100400
F00800
900800
101000
101000
102000
102000
104F80
1049C0
1090C0
7C80C0
010080
010180
020300
040600
040800
081FC0
080000
ENDCHAR

STARTCHAR threequarters
ENCODING 190
SWIDTH 788 0
DWIDTH 20 0
BBX 18 19 1 -1
BITMAP
780400
4C0800
840800
041000
081000
3C2000
062000
064100
864300
8C8300
F08500
010900
010900
021100
021FC0
040100
040100
0807C0
180000
ENDCHAR

STARTCHAR questiondown
ENCODING 191
SWIDTH 444 0
DWIDTH 11 0
BBX 9 18 1 -6
BITMAP
0C00
1C00
0C00
0000
0000
0C00
0400
0C00
0800
3000
7000
6000
C000
C000
C080
E100
7F00
1E00
ENDCHAR

STARTCHAR Agrave
ENCODING 192
SWIDTH 778 0
DWIDTH 19 0
BBX 18 23 1 0
BITMAP
030000
038000
00C000
003000
000000
008000
00C000
00C000
01E000
016000
027000
027000
063000
043800
0C1800
081C00
0FFC00
180E00
100E00
300600
200300
600700
F81FC0
ENDCHAR

STARTCHAR Aacute
ENCODING 193
SWIDTH 778 0
DWIDTH 19 0
BBX 18 23 1 0
BITMAP
003000
007000
00C000
030000
000000
008000
00C000
00C000
01E000
016000
027000
027000
063000
043800
0C1800
081C00
0FFC00
180E00
100E00
300600
200300
600700
F81FC0
ENDCHAR

STARTCHAR Acircumflex
ENCODING 194
SWIDTH 778 0
DWIDTH 19 0
BBX 18 23 1 0
BITMAP
00C000
01C000
032000
061000
000000
008000
00C000
00C000
01E000
016000
027000
027000
063000
043800
0C1800
081C00
0FFC00
180E00
100E00
300600
200300
600700
F81FC0
ENDCHAR

STARTCHAR Atilde
ENCODING 195
SWIDTH 778 0
DWIDTH 19 0
BBX 18 22 1 0
BITMAP
078800
08F000
000000
000000
008000
00C000
00C000
01E000
016000
027000
027000
063000
043800
0C1800
081C00
0FFC00
180E00
100E00
300600
200300
600700
F81FC0
ENDCHAR

STARTCHAR Adieresis
ENCODING 196
SWIDTH 778 0
DWIDTH 19 0
BBX 18 22 1 0
BITMAP
021000
073800
021000
000000
004000
00C000
00C000
01E000
016000
017000
023000
023800
061800
041800
0C1C00
0FFC00
080E00
180600
100700
300700
300380
FC0FC0
ENDCHAR

STARTCHAR Aring
ENCODING 197
SWIDTH 778 0
DWIDTH 19 0
BBX 19 24 0 0
BITMAP
00E000
011000
011000
011000
00E000
000000
004000
006000
00E000
00E000
00B000
013000
013800
021800
021C00
061C00
040C00
0FFE00
080600
080700
180300
100380
300380
FC0FE0
ENDCHAR

STARTCHAR AE
ENCODING 198
SWIDTH 944 0
DWIDTH 24 0
BBX 23 18 0 0
BITMAP
01FFFE
002C04
006C04
004C04
008C00
008C00
010C08
010C08
020FF8
040C08
07FC08
0C0C00
080C00
180C02
100C02
300C02
300C06
FC1FFE
ENDCHAR

STARTCHAR Ccedilla
ENCODING 199
SWIDTH 709 0
DWIDTH 18 0
BBX 17 23 1 -5
BITMAP
01FC00
0E0700
1C0100
380100
700100
600000
600000
E00000
E00000
E00000
E00000
600000
700000
700000
380000
1C0080
0F0300
03FC00
002000
007000
001800
001800
01F000
ENDCHAR

STARTCHAR Egrave
ENCODING 200
SWIDTH 611 0
DWIDTH 15 0
BBX 14 23 0 0
BITMAP
0400
0700
0180
00C0
0000
FFFC
381C
1808
1808
1800
1800
1810
1810
1810
1FF0
1810
1810
1800
1800
1804
1804
1804
7FFC
ENDCHAR

STARTCHAR Eacute
ENCODING 201
SWIDTH 611 0
DWIDTH 15 0
BBX 14 23 0 0
BITMAP
0040
01C0
0300
0600
0000
FFFC
381C
1808
1808
1800
1800
1810
1810
1810
1FF0
1810
1810
1800
1800
1804
1804
1804
7FFC
ENDCHAR

STARTCHAR Ecircumflex
ENCODING 202
SWIDTH 611 0
DWIDTH 15 0
BBX 14 23 0 0
BITMAP
0300
0380
04C0
0860
0000
FFFC
381C
1808
1808
1800
1800
1810
1810
1810
1FF0
1810
1810
1800
1800
1804
1804
1804
7FFC
ENDCHAR

STARTCHAR Edieresis
ENCODING 203
SWIDTH 611 0
DWIDTH 15 0
BBX 14 22 1 0
BITMAP
1860
1CE0
1860
0000
FFFC
381C
3808
3808
3800
3800
3810
3810
3810
3FF0
3810
3810
3800
3800
3804
3804
3804
FFFC
ENDCHAR

STARTCHAR Igrave
ENCODING 204
SWIDTH 337 0
DWIDTH 8 0
BBX 7 23 1 0
BITMAP
C0
60
10
0C
00
FE
30
30
30
30
30
30
30
30
30
30
30
30
30
30
30
30
FE
ENDCHAR

STARTCHAR Iacute
ENCODING 205
SWIDTH 337 0
DWIDTH 8 0
BBX 7 23 1 0
BITMAP
0C
1C
30
40
00
FE
30
30
30
30
30
30
30
30
30
30
30
30
30
30
30
30
FE
ENDCHAR

STARTCHAR Icircumflex
ENCODING 206
SWIDTH 337 0
DWIDTH 8 0
BBX 8 23 0 0
BITMAP
18
3C
66
C3
00
7F
18
18
18
18
18
18
18
18
18
18
18
18
18
18
18
18
7F
ENDCHAR

STARTCHAR Idieresis
ENCODING 207
SWIDTH 337 0
DWIDTH 8 0
BBX 8 22 0 0
BITMAP
42
E7
42
00
7E
18
18
18
18
18
18
18
18
18
18
18
18
18
18
18
18
7E
ENDCHAR

STARTCHAR Gbreve
ENCODING 208
SWIDTH 763 0
DWIDTH 19 0
BBX 18 23 0 0
BITMAP
020800
021000
033000
01E000
000000
03FE00
0E0380
180080
300080
700080
600000
600000
E00000
E00000
E00000
E00000
600FC0
700180
700180
380180
1C0180
0F0780
03FC00
ENDCHAR

STARTCHAR Ntilde
ENCODING 209
SWIDTH 831 0
DWIDTH 21 0
BBX 19 22 1 0
BITMAP
03C400
047800
000000
000000
F007E0
380080
3C0080
2E0080
2E0080
270080
238080
21C080
20E080
20E080
207080
203880
201C80
200E80
200F80
200780
200380
F80180
ENDCHAR

STARTCHAR Ograve
ENCODING 210
SWIDTH 786 0
DWIDTH 20 0
BBX 18 23 1 0
BITMAP
030000
018000
00C000
003000
000000
03F800
1C1E00
300700
600380
600380
E00180
C001C0
C001C0
C001C0
C001C0
C001C0
E00180
E00180
700300
700300
380600
1E1C00
07E000
ENDCHAR

STARTCHAR Oacute
ENCODING 211
SWIDTH 786 0
DWIDTH 20 0
BBX 18 23 1 0
BITMAP
003000
006000
00C000
030000
000000
03F800
1C1E00
300700
600380
600380
E00180
C001C0
C001C0
C001C0
C001C0
C001C0
E00180
E00180
700300
700300
380600
1E1C00
07E000
ENDCHAR

STARTCHAR Ocircumflex
ENCODING 212
SWIDTH 786 0
DWIDTH 20 0
BBX 18 23 1 0
BITMAP
00C000
01E000
032000
061000
000000
03F800
1C1E00
300700
600380
600380
E00180
C001C0
C001C0
C001C0
C001C0
C001C0
E00180
E00180
700300
700300
380600
1E1C00
07E000
ENDCHAR

STARTCHAR Otilde
ENCODING 213
SWIDTH 786 0
DWIDTH 20 0
BBX 18 22 1 0
BITMAP
078800
0CF000
000000
000000
03F800
1C1E00
300700
600380
600380
E00180
C001C0
C001C0
C001C0
C001C0
C001C0
E00180
E00180
700300
700300
380600
1E1C00
07E000
ENDCHAR

STARTCHAR Odieresis
ENCODING 214
SWIDTH 786 0
DWIDTH 20 0
BBX 18 22 1 0
BITMAP
021000
073800
021000
000000
03F800
0C1E00
380700
700380
600380
E00180
C001C0
C001C0
C001C0
C001C0
E001C0
E00180
E00180
700300
700300
380600
1E1C00
03F000
ENDCHAR

STARTCHAR multiply
ENCODING 215
SWIDTH 606 0
DWIDTH 15 0
BBX 11 11 2 3
BITMAP
C040
60E0
31C0
1B80
0F00
0E00
1F00
3B80
71C0
E0E0
4020
ENDCHAR

STARTCHAR Oslash
ENCODING 216
SWIDTH 833 0
DWIDTH 21 0
BBX 18 20 2 -1
BITMAP
000040
07F080
1C1F00
300700
600780
600D80
E01980
C031C0
C021C0
C041C0
C081C0
C101C0
E30180
E60180
7C0300
780300
380600
2E1C00
C7E000
400000
ENDCHAR

STARTCHAR Ugrave
ENCODING 217
SWIDTH 778 0
DWIDTH 19 0
BBX 18 23 1 0
BITMAP
030000
018000
004000
003000
000000
FE0FC0
300100
300100
300100
300100
300100
300100
300100
300100
300100
300100
300100
300100
300100
380300
1C0600
0FFC00
03E000
ENDCHAR

STARTCHAR Uacute
ENCODING 218
SWIDTH 778 0
DWIDTH 19 0
BBX 18 23 1 0
BITMAP
003000
007000
00C000
030000
000000
FE0FC0
300100
300100
300100
300100
300100
300100
300100
300100
300100
300100
300100
300100
300100
380300
1C0600
0FFC00
03E000
ENDCHAR

STARTCHAR Ucircumflex
ENCODING 219
SWIDTH 778 0
DWIDTH 19 0
BBX 18 23 1 0
BITMAP
00C000
01E000
033000
061800
000000
FE0FC0
300100
300100
300100
300100
300100
300100
300100
300100
300100
300100
300100
300100
300100
380300
1C0600
0FFC00
03E000
ENDCHAR

STARTCHAR Udieresis
ENCODING 220
SWIDTH 778 0
DWIDTH 19 0
BBX 18 22 1 0
BITMAP
061000
073800
021000
000000
FE0FC0
380100
300100
300100
300100
300100
300100
300100
300100
300100
300100
300100
300100
380100
380300
1C0600
0FFC00
01E000
ENDCHAR

STARTCHAR Idotaccent
ENCODING 221
SWIDTH 337 0
DWIDTH 8 0
BBX 7 22 1 0
BITMAP
10
38
10
00
FE
30
30
30
30
30
30
30
30
30
30
30
30
30
30
30
30
FE
ENDCHAR

STARTCHAR Scedilla
ENCODING 222
SWIDTH 525 0
DWIDTH 13 0
BBX 12 23 1 -5
BITMAP
1FC0
30E0
6020
C020
C000
C000
E000
F000
7FC0
1FE0
0070
0030
0030
8030
8030
8060
C0C0
7F00
0400
0E00
0300
0300
1E00
ENDCHAR

STARTCHAR germandbls
ENCODING 223
SWIDTH 556 0
DWIDTH 14 0
BBX 13 19 0 0
BITMAP
03E0
0470
1830
1810
3010
3010
3010
30F0
F090
3100
3180
31E0
30F0
3038
3018
3018
3110
3330
FDC0
ENDCHAR

STARTCHAR agrave
ENCODING 224
SWIDTH 500 0
DWIDTH 13 0
BBX 11 17 1 0
BITMAP
1800
0C00
0600
0100
0000
1E00
6300
4180
0180
0380
1D80
6180
C180
C180
C380
7D80
31E0
ENDCHAR

STARTCHAR aacute
ENCODING 225
SWIDTH 500 0
DWIDTH 13 0
BBX 11 17 1 0
BITMAP
0300
0700
0C00
1800
0000
1E00
6300
4180
0180
0380
1D80
6180
C180
C180
C380
7D80
31E0
ENDCHAR

STARTCHAR acircumflex
ENCODING 226
SWIDTH 500 0
DWIDTH 13 0
BBX 11 17 1 0
BITMAP
0C00
0E00
1300
2080
0000
1E00
6300
4180
0180
0380
1D80
6180
C180
C180
C380
7D80
31E0
ENDCHAR

STARTCHAR atilde
ENCODING 227
SWIDTH 500 0
DWIDTH 13 0
BBX 11 16 1 0
BITMAP
3CC0
4780
0000
0000
1E00
6300
4180
0180
0380
1D80
6180
C180
C180
C380
7D80
31E0
ENDCHAR

STARTCHAR adieresis
ENCODING 228
SWIDTH 500 0
DWIDTH 13 0
BBX 11 16 1 0
BITMAP
2100
7380
2100
0000
3E00
4300
4180
0180
0380
3D80
6180
C180
C180
C380
7D80
31E0
ENDCHAR

STARTCHAR aring
ENCODING 229
SWIDTH 500 0
DWIDTH 13 0
BBX 11 19 1 0
BITMAP
0E00
1100
1100
1100
0E00
0000
0000
1F00
6300
4180
0180
0380
1D80
6180
C180
C180
E380
FD80
31E0
ENDCHAR

STARTCHAR ae
ENCODING 230
SWIDTH 758 0
DWIDTH 19 0
BBX 17 12 1 0
BITMAP
1E3E00
63C300
41C180
018180
018180
1FFF80
718000
C18000
C1C000
C34000
7CF180
383E00
ENDCHAR

STARTCHAR ccedilla
ENCODING 231
SWIDTH 444 0
DWIDTH 11 0
BBX 9 17 1 -5
BITMAP
0F80
3180
6080
C080
C000
C000
C000
C000
E000
6000
7080
1F00
0400
0E00
0300
0300
1E00
ENDCHAR

STARTCHAR egrave
ENCODING 232
SWIDTH 479 0
DWIDTH 12 0
BBX 10 17 1 0
BITMAP
3000
1800
0C00
0300
0000
1F00
6180
40C0
C0C0
C0C0
FFC0
C000
C000
E000
E000
70C0
3F00
ENDCHAR

STARTCHAR eacute
ENCODING 233
SWIDTH 479 0
DWIDTH 12 0
BBX 10 17 1 0
BITMAP
0300
0600
0C00
3000
0000
1F00
6180
40C0
C0C0
C0C0
FFC0
C000
C000
E000
E000
70C0
3F00
ENDCHAR

STARTCHAR ecircumflex
ENCODING 234
SWIDTH 479 0
DWIDTH 12 0
BBX 10 17 1 0
BITMAP
0C00
1E00
3200
6180
0000
1F00
6180
40C0
C0C0
C0C0
FFC0
C000
C000
E000
E000
70C0
3F00
ENDCHAR

STARTCHAR edieresis
ENCODING 235
SWIDTH 479 0
DWIDTH 12 0
BBX 10 16 1 0
BITMAP
2100
7380
2100
0000
1F00
2180
60C0
C0C0
C0C0
FFC0
C000
C000
E000
6000
78C0
1F00
ENDCHAR

STARTCHAR igrave
ENCODING 236
SWIDTH 287 0
DWIDTH 7 0
BBX 6 17 1 0
BITMAP
C0
60
30
0C
00
10
F0
30
30
30
30
30
30
30
30
30
FC
ENDCHAR

STARTCHAR iacute
ENCODING 237
SWIDTH 287 0
DWIDTH 7 0
BBX 6 17 1 0
BITMAP
0C
1C
30
60
00
10
F0
30
30
30
30
30
30
30
30
30
FC
ENDCHAR

STARTCHAR icircumflex
ENCODING 238
SWIDTH 287 0
DWIDTH 7 0
BBX 8 17 0 0
BITMAP
18
3C
24
C3
00
08
78
18
18
18
18
18
18
18
18
18
7E
ENDCHAR

STARTCHAR idieresis
ENCODING 239
SWIDTH 287 0
DWIDTH 7 0
BBX 8 16 0 0
BITMAP
42
E7
42
00
08
78
18
18
18
18
18
18
18
18
18
7E
ENDCHAR

STARTCHAR gbreve
ENCODING 240
SWIDTH 556 0
DWIDTH 14 0
BBX 13 24 1 -7
BITMAP
1040
1040
1980
0F80
0000
0F00
31F8
60C0
60C0
60C0
6080
7180
1E00
2000
6000
7FE0
1FF0
6030
C030
C030
C020
C060
60C0
1F00
ENDCHAR

STARTCHAR ntilde
ENCODING 241
SWIDTH 582 0
DWIDTH 15 0
BBX 14 16 0 0
BITMAP
0F20
13C0
0000
0000
13C0
F7E0
3870
3030
3030
3030
3030
3030
3030
3030
3030
FC3C
ENDCHAR

STARTCHAR ograve
ENCODING 242
SWIDTH 546 0
DWIDTH 14 0
BBX 12 17 1 0
BITMAP
1800
0C00
0600
0180
0000
0F80
30E0
6060
C070
C030
C030
C030
E030
E030
7060
38C0
1F00
ENDCHAR

STARTCHAR oacute
ENCODING 243
SWIDTH 546 0
DWIDTH 14 0
BBX 12 17 1 0
BITMAP
0180
0380
0600
0800
0000
0F80
30E0
6060
C070
C030
C030
C030
E030
E030
7060
38C0
1F00
ENDCHAR

STARTCHAR ocircumflex
ENCODING 244
SWIDTH 546 0
DWIDTH 14 0
BBX 12 17 1 0
BITMAP
0600
0F00
1980
30C0
0000
0F80
30E0
6060
C070
C030
C030
C030
E030
E030
7060
38C0
1F00
ENDCHAR

STARTCHAR otilde
ENCODING 245
SWIDTH 546 0
DWIDTH 14 0
BBX 12 16 1 0
BITMAP
3E60
67C0
0000
0000
0F80
30E0
6060
C070
C030
C030
C030
E030
E030
7060
38C0
1F00
ENDCHAR

STARTCHAR odieresis
ENCODING 246
SWIDTH 546 0
DWIDTH 14 0
BBX 12 16 1 0
BITMAP
1080
39C0
1080
0000
0F80
30E0
6060
C070
C030
C030
C030
E030
E030
7060
38C0
1F00
ENDCHAR

STARTCHAR divide
ENCODING 247
SWIDTH 606 0
DWIDTH 15 0
BBX 13 11 1 3
BITMAP
0700
0700
0700
0000
0000
FFF8
FFF8
0000
0200
0700
0300
ENDCHAR

STARTCHAR oslash
ENCODING 248
SWIDTH 556 0
DWIDTH 14 0
BBX 12 14 1 -1
BITMAP
0010
0FB0
3060
60E0
C1B0
C330
C230
C430
E830
F030
6060
70C0
9F00
8000
ENDCHAR

STARTCHAR ugrave
ENCODING 249
SWIDTH 603 0
DWIDTH 15 0
BBX 14 17 0 0
BITMAP
0C00
0600
0300
00C0
0000
1030
F0F0
3030
3030
3030
3030
3030
3030
3030
3070
38B0
1F3C
ENDCHAR

STARTCHAR uacute
ENCODING 250
SWIDTH 603 0
DWIDTH 15 0
BBX 14 17 0 0
BITMAP
0040
01C0
0300
0600
0000
1030
F0F0
3030
3030
3030
3030
3030
3030
3030
3070
38B0
1F3C
ENDCHAR

STARTCHAR ucircumflex
ENCODING 251
SWIDTH 603 0
DWIDTH 15 0
BBX 14 17 0 0
BITMAP
0300
0780
0480
1860
0000
1030
F0F0
3030
3030
3030
3030
3030
3030
3030
3070
38B0
1F3C
ENDCHAR

STARTCHAR udieresis
ENCODING 252
SWIDTH 603 0
DWIDTH 15 0
BBX 14 16 0 0
BITMAP
1840
1CE0
1840
0000
1030
F0F0
3030
3030
3030
3030
3030
3030
3030
3070
38B0
1F3C
ENDCHAR

STARTCHAR dotlessi
ENCODING 253
SWIDTH 287 0
DWIDTH 7 0
BBX 6 12 1 0
BITMAP
10
F0
30
30
30
30
30
30
30
30
30
FC
ENDCHAR

STARTCHAR scedilla
ENCODING 254
SWIDTH 424 0
DWIDTH 11 0
BBX 9 17 1 -5
BITMAP
3E00
6100
C100
C000
E000
7E00
1F80
0180
8180
8180
C300
7C00
0800
1C00
0600
0600
7C00
ENDCHAR

STARTCHAR ydieresis
ENCODING 255
SWIDTH 556 0
DWIDTH 14 0
BBX 13 23 1 -7
BITMAP
1080
39C0
1080
0000
F8F8
7020
3020
3040
3840
1880
1880
0C80
0D00
0E00
0600
0600
0400
0400
0400
0800
4800
F000
E000
ENDCHAR
ENDFONT
